# xmcd
#
# Track frame offsets: 
#        150
#        17330
#        36927
#        54592
#        69183
#        92502
#        109661
#        128145
#        140480
#        152046
#
# Disc length: 2402 seconds
#
# Revision: 0
# Processed by: cddbd v1.5.2PL0 Copyright (c) Steve Scherf et al.
# Submitted via: ExactAudioCopy v1.1
#
DISCID=7809600a
DTITLE=Howlin' Wolf - The Howlin' Wolf Album (1968)
DYEAR=1968
DGENRE=Blues
TTITLE0=Spoonful (1968) (stereo)
TTITLE1=Tail Dragger (1968) (stereo)
TTITLE2=Smokestack Lightning (1968) (stereo)
TTITLE3=Moanin' At Midnight (1968) (stereo)
TTITLE4=Built For Comfort (1968) (stereo)
TTITLE5=The Red Rooster (1968) (stereo)
TTITLE6=Evil (1968) (stereo)
TTITLE7=Down In The Bottom (1968) (stereo)
TTITLE8=Three Hundred Pounds Of Joy (1968) (stereo)
TTITLE9=Back Door Man (1968) (stereo)
EXTD=
EXTT0=
EXTT1=
EXTT2=
EXTT3=
EXTT4=
EXTT5=
EXTT6=
EXTT7=
EXTT8=
EXTT9=
PLAYORDER=
